<svg version="1" xmlns="http://www.w3.org/2000/svg" width="346.667" height="346.667" viewBox="0 0 260.000000 260.000000"><path d="M15 7.5V13H7v4c0 3.9-.1 4-3.5 4H0v19h3.5c3.3 0 3.5.2 3.5 3.5 0 3.6.9 4.1 6.3 3.6 1.4-.2 1.7.6 1.7 5.3 0 4.6.3 5.6 1.8 5.7 3.7.1 38.1.8 46 .8l8.2.1v18H0v19h71V85h3.8c3.6 0 3.9-.2 3.7-2.8-.2-3.6.4-5.2 2.1-5.2 1.2 0 1.4 7.1 1.4 44.5V166h18.9v-12.2-18.6l.1-6.2 24.3.2 24.2.3v3.2c-.1 3.2.1 3.3 3.7 3.3h3.8v30h9v94h19.1l-.1-10.3c-.1-5.6-.1-13.9-.1-18.5l.1-8.2 24.3.2 24.2.3-.1 3.2c-.1 3.2.1 3.3 3.8 3.3h3.8v30H259.7v-9.5c0-8.5-.2-9.5-1.9-9.5-1.6 0-1.8-.9-1.8-7.5V226h-15.1l.3-7.3.3-7.2h3.5c3.3 0 3.5-.2 3.5-3.5v-3.5l5.6-.3 5.6-.3v-18.8l-5.6-.3-5.6-.3.1-3.8c.1-3.7.1-3.7-3.7-3.7H241v-11h-32.5c-17.9 0-32.5-.3-32.6-.8 0-.4-.1-4.6-.1-9.5-.1-7.7-.3-8.7-2-8.7-1.6 0-1.8-.9-1.8-7.5V132h-15v-7c0-4.9.4-7 1.3-7.1 1.1-.2 2.2-.3 5.3-.8.6 0 1-1.6 1-3.4l-.1-3.2 5.6-.3 5.7-.3-.1-9.4v-9.4l-5.6-.3-5.6-.3.1-3.8c.2-3.7.2-3.7-3.7-3.7H157V72H89.5l.1-6.5c.1-4.9-.2-6.5-1.2-6.6-.8-.1-1.8-.3-2.4-.4-.5-.1-2.5-.3-4.3-.4-3.2-.1-3.4-.3-3.2-3.6.3-3.4.2-3.5-3.6-3.5H71V40H43c-18 0-28-.4-28.1-1v-7.5V23c.1-2 .8-2 37.5-2h37.3l.1-9.5V2H15v5.5zm142 93v9.5h-55.9l-.3-3.3c-.2-1.7-.1-6 0-9.5l.4-6.2H157v9.5zm84 94v9.5h-56l-.1-3c0-1.7-.1-4.6-.1-6.5 0-1.9.1-4.9.1-6.5l.1-3h56v9.5z"/></svg>